<?xml version="1.0" encoding="UTF-8"?>
<svg id="Layer_1" data-name="Layer 1" xmlns="http://www.w3.org/2000/svg" viewBox="0 0 405.93 324.2">
  <path d="M246.05,141.23c4.16,2.27,8.44,4.34,12.91,6.59,9.01-14.21,21.03-23.96,36.17-29.95,10.13-4,20.19-8.17,30.28-12.27,16.37-6.66,32.72-13.36,47.67-22.96,13.71-8.8,24.77-19.85,29.59-35.93,3.55-11.83,3.66-23.99,2.87-36.18-.24-3.64-.95-7.25-1.4-10.53-4.88,7-9.12,14.27-14.5,20.56-12.53,14.65-28.43,24.83-46,32.5-25.09,10.94-50.2,21.83-75.29,32.77-8.91,3.89-16.32,9.73-22.18,17.48-.74.97-1.54,2.23-1.55,3.36-.06,10.68.03,21.37.18,32.06.01.86.58,2.13,1.28,2.51Z" fill="#446385"/>
  <path d="M383.69,92.7c-13.5,10.65-29.24,17.25-44.97,23.82-15.6,6.51-31.21,12.99-46.69,19.78-8.42,3.69-14.85,9.9-19.95,17.73,11.96,6.27,23.55,12.38,35.18,18.39.8.41,2.1.44,2.95.11,18.39-7.22,36.92-14.12,55.06-21.93,12.45-5.36,22.21-14.1,27.79-26.96,6.5-14.96,9.57-30.59,9.73-46.84,0-.62-.19-1.24-.18-1.2-6.24,5.69-12.24,11.83-18.92,17.1Z" fill="#5b98ce"/>
  <path d="M230.02,315.37c36.73-19.02,69.47-42.83,97.65-72.84-44,3.77-83.53,28.21-97.65,72.84Z" fill="#fff"/>
  <path d="M322.51,185.71c-7.1,12.63-14.18,25.27-21.09,38.01-1.33,2.45-2.74,3.43-5.61,3.41-21.49-.14-42.97-.09-64.46-.1-1.01,0-2.01,0-3.01,0v-15.84c1.36,0,2.5,0,3.64,0,18.73,0,37.47.04,56.2-.06,1.22,0,3.02-.69,3.56-1.63,4.07-7.12,7.9-14.39,11.97-21.93-3.33-1.8-6.34-3.53-9.44-5.08-20.9-10.44-41.8-20.88-62.76-31.19-2.65-1.3-3.56-2.86-3.52-5.79.18-11.43.14-22.86.07-34.29-.09-13.5-11.57-24.96-24.9-25.08h-.41c-13.33.12-24.81,11.58-24.9,25.08-.08,11.43-.11,22.86.07,34.29.05,2.94-.86,4.49-3.52,5.79-20.96,10.31-41.86,20.75-62.76,31.19-3.1,1.55-6.11,3.28-9.44,5.08,4.07,7.54,7.9,14.8,11.97,21.93.54.94,2.34,1.62,3.56,1.63,18.73.1,37.47.06,56.2.06,1.14,0,2.28,0,3.64,0v15.84c-1,0-2.01,0-3.01,0-21.49,0-42.97-.05-64.46.1-2.87.02-4.28-.96-5.61-3.41-6.91-12.74-13.99-25.38-21.09-38.01-.63-1.11-1.6-2.38-2.71-2.83-18.61-7.48-37.27-14.83-56.05-22.26,1.37,3.57,2.75,7.72,4.51,11.69,7.23,16.3,18.04,30.26,28.72,44.36,4.41,5.81,9.45,8.46,16.69,9.33,17.04,2.05,33.76,6.05,49.6,12.77,29.56,12.54,50.22,34.15,63,63.43,3.03,6.95,5.67,14.07,8.84,21.99v-52.56c.22-.1.44-.21.66-.31,1.99,2.79,3.99,5.59,6.07,8.52v.31s.06.08.1.13c.04-.05.07-.1.11-.15.04.05.07.1.11.15.03-.04.06-.08.1-.13v-.31c2.09-2.92,4.08-5.72,6.07-8.52.22.1.44.21.66.31v52.56c3.17-7.92,5.81-15.04,8.84-21.99,12.78-29.28,33.44-50.9,63-63.43,15.85-6.72,32.57-10.72,49.6-12.77,7.24-.87,12.28-3.52,16.69-9.33,10.68-14.1,21.49-28.06,28.72-44.36,1.76-3.97,3.14-8.12,4.51-11.69-18.77,7.43-37.43,14.79-56.05,22.26-1.11.45-2.08,1.71-2.71,2.83ZM234.53,252.88c-.38.68-.78,1.34-1.14,2.02-3.2,6-3.12,6.03-9.6,3.9-5.2-1.71-10.4-3.42-15.83-5.2-1.65,5.33-3.22,10.42-4.8,15.51-.07,0-.13,0-.2.01-.07,0-.13,0-.2-.01-1.57-5.09-3.15-10.17-4.8-15.51-5.43,1.78-10.63,3.49-15.83,5.2-6.49,2.13-6.41,2.11-9.6-3.9-.36-.68-.76-1.35-1.14-2.02-.86-1.54-.64-2.76.92-4.05,3.75-3.09,7.04-6.84,11.06-9.5,6.96-4.6,9.63-10.45,8.92-18.85-.75-8.91-.17-17.93-.17-27.22-1.66.11-3.12.16-4.56.32-18.91,2.06-37.82,4.16-56.73,6.19-7.65.82-5.79,1.93-8.89-5.83-.07-.18-.03-.41-.05-.77,22.58-11.02,44.98-21.98,67.43-32.85,1.91-.92,2.57-2.07,2.56-4.13-.04-7.09.11-14.18.13-21.27.02-7.2-.1-14.39-.02-21.59.07-6.54,5.29-12.61,10.97-12.81,5.68.2,10.9,6.27,10.97,12.81.08,7.19-.04,14.39-.02,21.59.02,7.09.17,14.18.13,21.27-.01,2.06.65,3.2,2.56,4.13,22.45,10.87,44.85,21.83,67.43,32.85-.02.36.02.59-.05.77-3.09,7.76-1.23,6.66-8.89,5.83-18.91-2.03-37.82-4.13-56.73-6.19-1.44-.16-2.9-.2-4.56-.32,0,9.29.58,18.31-.17,27.22-.71,8.4,1.96,14.25,8.92,18.85,4.02,2.66,7.31,6.4,11.06,9.5,1.56,1.29,1.78,2.51.92,4.05Z" fill="#a7d3fc"/>
  <path d="M32.86,82.64c14.95,9.6,31.3,16.3,47.67,22.96,10.09,4.1,20.15,8.27,30.28,12.27,15.14,5.99,27.16,15.74,36.17,29.95,4.47-2.25,8.74-4.32,12.91-6.59.69-.38,1.26-1.64,1.28-2.51.15-10.68.23-21.37.18-32.06,0-1.13-.81-2.39-1.55-3.36-5.86-7.75-13.27-13.59-22.18-17.48-25.09-10.94-50.2-21.83-75.29-32.77-17.57-7.66-33.47-17.85-46-32.5C10.92,14.27,6.68,7,1.8,0,1.35,3.28.64,6.89.4,10.53c-.79,12.19-.68,24.35,2.87,36.18,4.82,16.08,15.88,27.13,29.59,35.93Z" fill="#446385"/>
  <path d="M95.71,172.53c.85.33,2.15.3,2.95-.11,11.64-6.01,23.23-12.12,35.18-18.39-5.1-7.83-11.53-14.04-19.95-17.73-15.48-6.79-31.09-13.27-46.69-19.78-15.73-6.57-31.47-13.17-44.97-23.82-6.68-5.27-12.68-11.41-18.92-17.1,0-.04-.19.58-.18,1.2.16,16.25,3.23,31.87,9.73,46.84,5.58,12.86,15.35,21.6,27.79,26.96,18.14,7.81,36.67,14.71,55.06,21.93Z" fill="#5b98ce"/>
  <path d="M78.25,242.53c28.19,30.01,60.93,53.81,97.65,72.84-14.12-44.63-53.66-69.07-97.65-72.84Z" fill="#fff"/>
</svg>